# xmcd
#
# Track frame offsets:
#	150
#	16400
#	32957
#	60352
#	88497
#
# Disc length: 1437 seconds
#
# Revision: 1
# Processed by: cddbd v1.5.2PL0 Copyright (c) Steve Scherf et al.
# Submitted via: EasyCDDAExtractor 2010.6.0.0
#
DISCID=3b059b05
DTITLE=Chekmate - Seasons In The Sun
DYEAR=1999
DGENRE=Dance
TTITLE0=Seasons In The Sun (Radio Version)
TTITLE1=Turn Back The Hands Of Time (Radio Version)
TTITLE2=Seasons In The Sun (Club Mix)
TTITLE3=Turn Back The Hands Of Time (Club Mix)
TTITLE4=Do You Remember Me?
EXTD=
EXTT0=
EXTT1=
EXTT2=
EXTT3=
EXTT4=
PLAYORDER=
